<svg width="24" height="40" viewBox="0 0 24 40" fill="none" xmlns="http://www.w3.org/2000/svg">
<path fill-rule="evenodd" clip-rule="evenodd" d="M12.0037 40C24 16.5 24 16.262 24 10.4762C24 4.69035 19.4178 0 12.0042 0C4.5905 0 0.000200962 4.69035 0.000200962 10.4762C0.000200962 10.5692 0.000149269 10.6609 9.83176e-05 10.7512C-0.00301862 16.2757 -0.00335884 16.878 12.0037 40ZM12.0039 21C16.9759 21 21.0066 16.9706 21.0066 12C21.0066 7.02944 16.9759 3 12.0039 3C7.03179 3 3.00113 7.02944 3.00113 12C3.00113 16.9706 7.03179 21 12.0039 21Z" fill="#313030"/>
<path fill-rule="evenodd" clip-rule="evenodd" d="M8.07006 6C7.62823 6 7.27006 6.35817 7.27006 6.8V8.71993L7.02762 8.71993C6.66989 8.71993 6.3686 8.98203 6.29681 9.32845C6.1335 9.3312 6.00195 9.46444 6.00195 9.62841V10.8678C6.00195 11.0335 6.13627 11.1678 6.30195 11.1678H6.63181C6.7975 11.1678 6.93181 11.0335 6.93181 10.8678V9.62841C6.93181 9.46272 6.7975 9.32841 6.63181 9.32841H6.60269C6.66476 9.15143 6.83021 9.02394 7.02312 9.02394L7.27006 9.02394V16.4993C7.27006 16.9411 7.62823 17.2993 8.07006 17.2993H8.11754C8.11604 17.3114 8.11526 17.3238 8.11526 17.3364V17.6999C8.11526 17.8656 8.24958 17.9999 8.41526 17.9999H9.25232C9.418 17.9999 9.55232 17.8656 9.55232 17.6999V17.3364C9.55232 17.3238 9.55154 17.3114 9.55004 17.2993H14.4575C14.456 17.3114 14.4552 17.3238 14.4552 17.3364V17.6999C14.4552 17.8656 14.5895 17.9999 14.7552 17.9999H15.5922C15.7579 17.9999 15.8922 17.8656 15.8922 17.6999V17.3364C15.8922 17.3238 15.8915 17.3114 15.89 17.2993H15.9377C16.3795 17.2993 16.7377 16.9411 16.7377 16.4993V8.99875L16.946 8.99875C17.148 8.99875 17.3198 9.13846 17.3745 9.32841C17.2094 9.32909 17.0757 9.46314 17.0757 9.62841V10.8678C17.0757 11.0335 17.2101 11.1678 17.3757 11.1678H17.7056C17.8713 11.1678 18.0056 11.0335 18.0056 10.8678V9.62841C18.0056 9.46272 17.8713 9.32841 17.7056 9.32841H17.6771C17.615 8.9696 17.3078 8.69474 16.9415 8.69474L16.7377 8.69474V6.8C16.7377 6.35817 16.3795 6 15.9377 6H8.07006ZM9.17632 6.61318C9.01064 6.61318 8.87632 6.7475 8.87632 6.91318V7.71464C8.87632 7.88033 9.01064 8.01464 9.17632 8.01464H15.0008C15.1665 8.01464 15.3008 7.88033 15.3008 7.71464V6.91318C15.3008 6.7475 15.1665 6.61318 15.0008 6.61318H9.17632ZM15.0088 15.1094C14.8431 15.1094 14.7088 15.2437 14.7088 15.4094V15.7729C14.7088 15.9386 14.8431 16.0729 15.0088 16.0729H16.0994C16.2651 16.0729 16.3994 15.9386 16.3994 15.7729V15.4094C16.3994 15.2437 16.2651 15.1094 16.0994 15.1094H15.0088ZM7.69266 8.66499C7.69266 8.4993 7.82697 8.36499 7.99266 8.36499H11.9193V13.7956H7.99266C7.82697 13.7956 7.69266 13.6613 7.69266 13.4956V8.66499ZM16.0996 8.36499H12.173V13.7956H16.0996C16.2653 13.7956 16.3996 13.6613 16.3996 13.4956V8.66499C16.3996 8.4993 16.2653 8.36499 16.0996 8.36499ZM7.69266 15.4094C7.69266 15.2437 7.82697 15.1094 7.99266 15.1094H9.08331C9.249 15.1094 9.38331 15.2437 9.38331 15.4094V15.7729C9.38331 15.9386 9.249 16.0729 9.08331 16.0729H7.99266C7.82697 16.0729 7.69266 15.9386 7.69266 15.7729V15.4094Z" fill="#313030"/>
</svg>
