<svg width="40" height="40" viewBox="0 0 40 40" fill="none" xmlns="http://www.w3.org/2000/svg">
<path fill-rule="evenodd" clip-rule="evenodd" d="M6.22573 0C5.12116 0 4.22573 0.895432 4.22573 2V9.06638L3.41808 9.06638C2.2259 9.06638 1.22177 9.9401 0.982484 11.0948C0.43828 11.1042 0 11.5483 0 12.0947V16.2261C0 16.7784 0.447714 17.2261 0.999999 17.2261H2.09858C2.65087 17.2261 3.09858 16.7784 3.09858 16.2261V12.0947C3.09858 11.5424 2.65087 11.0947 2.09858 11.0947H2.00192C2.20877 10.5048 2.76012 10.0799 3.40293 10.0799L4.22573 10.0799V35.6642C4.22573 36.7688 5.12116 37.6642 6.22573 37.6642H7.04982C7.04481 37.7048 7.04222 37.7461 7.04222 37.7881V38.9998C7.04222 39.552 7.48994 39.9998 8.04222 39.9998H10.8309C11.3832 39.9998 11.8309 39.552 11.8309 38.9998V37.7881C11.8309 37.7461 11.8284 37.7048 11.8234 37.6642H28.1765C28.1715 37.7048 28.1689 37.7461 28.1689 37.7881V38.9998C28.1689 39.552 28.6166 39.9998 29.1689 39.9998H31.9576C32.5099 39.9998 32.9576 39.552 32.9576 38.9998V37.7881C32.9576 37.7461 32.955 37.7048 32.95 37.6642H33.7749C34.8795 37.6642 35.7749 36.7688 35.7749 35.6642V9.99588L36.469 9.99589C37.1419 9.99589 37.7146 10.4616 37.8968 11.0947C37.3466 11.0972 36.9014 11.5439 36.9014 12.0947V16.2261C36.9014 16.7784 37.3491 17.2261 37.9014 17.2261H39C39.5523 17.2261 40 16.7784 40 16.2261V12.0947C40 11.5424 39.5523 11.0947 39 11.0947H38.9054C38.6984 9.89866 37.6747 8.9824 36.4539 8.9824L35.7749 8.9824V2C35.7749 0.89543 34.8795 0 33.7749 0H6.22573ZM10.5783 2.04395C10.026 2.04395 9.57831 2.49166 9.57831 3.04394V5.71548C9.57831 6.26776 10.026 6.71548 10.5783 6.71548H29.9867C30.539 6.71548 30.9867 6.26776 30.9867 5.71548V3.04395C30.9867 2.49166 30.539 2.04395 29.9867 2.04395H10.5783ZM30.0139 30.3647C29.4616 30.3647 29.0139 30.8125 29.0139 31.3647V32.5764C29.0139 33.1287 29.4616 33.5764 30.0139 33.5764H33.6476C34.1999 33.5764 34.6476 33.1287 34.6476 32.5764V31.3647C34.6476 30.8125 34.1999 30.3647 33.6476 30.3647H30.0139ZM5.63398 8.8833C5.63398 8.33102 6.08169 7.8833 6.63398 7.8833H19.7184V25.9855H6.63398C6.08169 25.9855 5.63398 25.5378 5.63398 24.9855V8.8833ZM33.6482 7.8833H20.5638V25.9855H33.6482C34.2005 25.9855 34.6482 25.5378 34.6482 24.9855V8.8833C34.6482 8.33102 34.2005 7.8833 33.6482 7.8833ZM5.63398 31.3647C5.63398 30.8125 6.08169 30.3647 6.63398 30.3647H10.2678C10.82 30.3647 11.2678 30.8125 11.2678 31.3647V32.5764C11.2678 33.1287 10.82 33.5764 10.2678 33.5764H6.63398C6.08169 33.5764 5.63398 33.1287 5.63398 32.5764V31.3647Z" fill="#313030"/>
</svg>
