<svg width="40" height="40" viewBox="0 0 40 40" fill="none" xmlns="http://www.w3.org/2000/svg">
<path fill-rule="evenodd" clip-rule="evenodd" d="M4 0C1.79086 0 0 1.79086 0 4V36C0 38.2091 1.79086 40 4 40H36C38.2091 40 40 38.2091 40 36V4C40 1.79086 38.2091 0 36 0H4ZM33.936 5.98563C32.5403 4.64831 30.3039 4.67525 28.9408 6.04581L20.0006 15.0349L11.0605 6.04581C9.69742 4.67525 7.46096 4.64831 6.06524 5.98563C4.66953 7.32296 4.64308 9.51814 6.00618 10.8887L15.0652 19.9973L6.00527 29.1069C4.64218 30.4774 4.66862 32.6726 6.06434 34.0099C7.46005 35.3473 9.69652 35.3203 11.0596 33.9498L20.0006 24.9598L28.9417 33.9498C30.3048 35.3203 32.5412 35.3473 33.9369 34.0099C35.3327 32.6726 35.3591 30.4774 33.996 29.1069L24.9361 19.9973L33.9951 10.8887C35.3582 9.51814 35.3317 7.32296 33.936 5.98563Z" fill="#313030"/>
</svg>
