<svg width="40" height="40" viewBox="0 0 40 40" fill="none" xmlns="http://www.w3.org/2000/svg">
<path fill-rule="evenodd" clip-rule="evenodd" d="M26.3302 24.8302C28.6163 22.1976 30 18.7604 30 15C30 6.71573 23.2843 0 15 0C6.71573 0 0 6.71573 0 15C0 23.2843 6.71573 30 15 30C18.7604 30 22.1976 28.6163 24.8302 26.3302L25 26.5V28.5L36.5 40L40 36.5L28.5 25H26.5L26.3302 24.8302ZM15 25.4443C9.23176 25.4443 4.55568 20.7682 4.55568 15C4.55568 9.23176 9.23176 4.55568 15 4.55568C20.7682 4.55568 25.4443 9.23176 25.4443 15C25.4443 20.7682 20.7682 25.4443 15 25.4443Z" fill="#F9CE3A"/>
</svg>
