<svg width="50" height="50" viewBox="0 0 50 50" fill="none" xmlns="http://www.w3.org/2000/svg">
<rect width="50" height="50" rx="25" fill="#253D6E"/>
<path fill-rule="evenodd" clip-rule="evenodd" d="M29.1146 28.1396C30.6006 26.4284 31.5 24.1943 31.5 21.75C31.5 16.3652 27.1348 12 21.75 12C16.3652 12 12 16.3652 12 21.75C12 27.1348 16.3652 31.5 21.75 31.5C24.1943 31.5 26.4284 30.6006 28.1396 29.1146L28.25 29.225V30.525L35.725 38L38 35.725L30.525 28.25H29.225L29.1146 28.1396ZM21.75 28.5388C18.0006 28.5388 14.9612 25.4994 14.9612 21.75C14.9612 18.0006 18.0006 14.9612 21.75 14.9612C25.4994 14.9612 28.5388 18.0006 28.5388 21.75C28.5388 25.4994 25.4994 28.5388 21.75 28.5388Z" fill="#F9CE3A"/>
</svg>
